<?xml version="1.0" standalone="no"?>
<!DOCTYPE svg PUBLIC "-//W3C//DTD SVG 20010904//EN"
 "http://www.w3.org/TR/2001/REC-SVG-20010904/DTD/svg10.dtd">
<svg version="1.0" xmlns="http://www.w3.org/2000/svg"
 width="599.000000pt" height="416.000000pt" viewBox="0 0 599.000000 416.000000"
 preserveAspectRatio="xMidYMid meet">

<g transform="translate(0.000000,416.000000) scale(0.100000,-0.100000)"
fill="#000000" stroke="none">
<path d="M2522 3424 c-70 -18 -106 -38 -158 -86 -83 -77 -132 -200 -119 -301
9 -70 64 -177 115 -224 37 -34 113 -81 132 -83 3 0 16 30 28 68 13 37 32 89
43 116 18 42 19 50 7 54 -8 3 -27 18 -42 33 -58 58 -23 170 58 185 104 19 176
-104 108 -185 -14 -17 -32 -31 -41 -31 -10 0 -12 -6 -8 -22 10 -31 77 -212 80
-216 8 -9 105 51 136 85 57 61 78 96 95 164 33 130 -2 258 -98 351 -54 53 -88
71 -173 94 -62 17 -95 17 -163 -2z m210 -84 c56 -26 111 -79 140 -135 29 -56
36 -167 14 -233 -18 -54 -91 -142 -118 -142 -10 0 -22 18 -32 51 l-17 50 30
34 c87 99 22 262 -116 288 -67 13 -161 -39 -187 -104 -28 -69 -15 -157 28
-198 l24 -23 -20 -49 c-11 -27 -26 -49 -32 -49 -7 0 -28 17 -48 38 -154 160
-95 409 115 484 66 24 154 19 219 -12z"/>
<path d="M2950 2156 l0 -523 103 -27 c165 -43 571 -132 717 -157 212 -37 118
-34 -149 5 -202 30 -591 102 -653 122 -16 5 -18 -5 -18 -105 l0 -111 520 0
521 0 -3 138 -3 137 -375 1 -375 1 -3 522 -2 521 -140 0 -140 0 0 -524z m993
-743 c-7 -2 -19 -2 -25 0 -7 3 -2 5 12 5 14 0 19 -2 13 -5z"/>
<path d="M4200 2020 l0 -660 520 0 521 0 -3 138 -3 137 -380 1 -380 1 -3 522
-2 521 -135 0 -135 0 0 -660z"/>
<path d="M1410 2663 c-43 -7 -155 -67 -155 -83 0 -12 25 -16 149 -20 l148 -5
-121 -90 c-66 -49 -121 -92 -121 -95 0 -10 15 -25 39 -41 24 -15 26 -14 61 23
l37 38 251 0 250 0 26 -31 c14 -17 26 -39 26 -50 0 -18 8 -19 134 -19 74 0
137 3 140 8 2 4 0 29 -5 56 -23 123 -102 225 -217 279 l-67 32 -275 1 c-151 1
-286 0 -300 -3z"/>
<path d="M2472 2228 l3 -443 138 -47 137 -46 0 489 0 489 -140 0 -140 0 2
-442z"/>
<path d="M1116 2227 c-17 -12 -17 -16 4 -77 38 -114 134 -213 238 -248 36 -12
110 -17 305 -21 l259 -6 34 -37 c28 -31 34 -46 34 -82 0 -29 -7 -52 -22 -71
-39 -50 -67 -55 -311 -55 l-223 0 -31 31 c-18 16 -33 40 -35 52 -3 21 -8 22
-136 25 -109 2 -133 0 -138 -12 -3 -8 7 -51 23 -96 47 -132 125 -211 247 -249
61 -19 93 -21 310 -21 254 0 299 6 388 51 56 29 138 116 165 177 29 65 45 168
29 182 -7 5 -75 31 -151 59 -340 120 -543 206 -838 352 -66 33 -122 59 -126
59 -4 0 -15 -6 -25 -13z"/>
<path d="M1650 2147 c14 -14 322 -162 430 -206 69 -29 133 -56 143 -62 28 -16
29 -7 6 47 -14 30 -47 74 -89 114 -94 92 -131 103 -335 108 -88 2 -158 2 -155
-1z"/>
<path d="M2480 1530 l0 -170 135 0 135 0 0 134 c0 120 -2 135 -17 140 -61 18
-238 66 -245 66 -4 0 -8 -76 -8 -170z"/>
<path d="M1090 1156 l0 -145 43 -5 c23 -3 958 -5 2077 -4 l2035 3 0 145 0 145
-2077 3 -2078 2 0 -144z m159 70 c16 -19 -1 -29 -34 -20 -35 9 -31 -7 8 -31
43 -27 48 -67 12 -91 -21 -14 -31 -15 -51 -6 -26 12 -41 38 -30 50 4 3 16 1
26 -6 26 -16 40 -15 40 3 0 8 -13 21 -29 29 -34 18 -45 41 -31 67 13 23 71 26
89 5z m281 -66 c0 -64 -3 -80 -15 -80 -12 0 -15 16 -15 80 0 64 3 80 15 80 12
0 15 -16 15 -80z m260 0 c0 -64 -3 -80 -15 -80 -12 0 -15 16 -15 80 0 64 3 80
15 80 12 0 15 -16 15 -80z m1050 74 c0 -3 -5 -14 -10 -24 -8 -15 -6 -21 9 -29
23 -13 33 -45 18 -60 -6 -6 -7 -11 -3 -11 5 0 3 -7 -4 -15 -16 -20 -64 -19
-84 1 -20 20 -20 58 0 75 8 7 22 25 30 41 12 24 44 40 44 22z m340 -74 c0 -64
-3 -80 -15 -80 -12 0 -15 16 -15 80 0 64 3 80 15 80 12 0 15 -16 15 -80z m210
0 l0 -80 -43 0 c-50 0 -67 13 -67 51 0 36 27 62 57 56 20 -4 23 0 23 24 0 19
5 29 15 29 12 0 15 -16 15 -80z m350 15 c0 -58 2 -65 20 -65 11 0 20 -7 20
-15 0 -11 -11 -15 -40 -15 l-40 0 0 80 c0 73 2 80 20 80 18 0 20 -7 20 -65z
m690 -15 c0 -64 -3 -80 -15 -80 -12 0 -15 16 -15 80 0 64 3 80 15 80 12 0 15
-16 15 -80z m220 15 c0 -63 1 -65 25 -65 16 0 25 -6 25 -15 0 -11 -11 -15 -40
-15 l-40 0 0 80 c0 64 3 80 15 80 12 0 15 -14 15 -65z m160 40 c0 -19 5 -25
22 -25 28 0 58 -28 58 -53 0 -34 -29 -57 -72 -57 l-38 0 0 80 c0 64 3 80 15
80 9 0 15 -9 15 -25z m-2401 -60 c1 -69 -1 -75 -19 -75 -18 0 -20 6 -19 75 1
65 4 75 19 75 15 0 18 -10 19 -75z m170 0 c1 -69 -1 -75 -19 -75 -18 0 -20 6
-19 75 1 65 4 75 19 75 15 0 18 -10 19 -75z m425 58 c-1 -7 -2 -40 -2 -73 -2
-46 -5 -60 -17 -60 -11 0 -15 13 -15 53 0 28 -3 63 -7 75 -5 21 -3 23 18 20
13 -1 24 -9 23 -15z m1092 -5 c-3 -13 -6 -47 -6 -75 0 -40 -4 -53 -15 -53 -12
0 -15 15 -15 75 0 70 1 75 21 75 17 0 20 -4 15 -22z m158 5 c-1 -7 -2 -40 -2
-73 -2 -46 -5 -60 -17 -60 -11 0 -15 13 -15 53 0 28 -3 63 -7 75 -5 21 -3 23
18 20 13 -1 24 -9 23 -15z m495 -58 c1 -69 -1 -75 -19 -75 -18 0 -20 6 -19 75
1 65 4 75 19 75 15 0 18 -10 19 -75z m-2782 39 c13 -13 14 -20 5 -35 -7 -10
-12 -32 -12 -49 0 -20 -5 -30 -15 -30 -11 0 -15 11 -15 39 0 22 -5 41 -11 43
-8 3 -8 10 2 26 16 26 25 27 46 6z m766 3 c2 -7 2 -36 -1 -65 -4 -42 -8 -52
-23 -52 -15 0 -19 8 -19 40 0 27 -4 40 -13 40 -21 0 -27 -11 -15 -30 17 -27 3
-50 -31 -50 -32 0 -51 18 -31 30 9 5 9 13 1 27 -17 32 8 58 48 50 23 -5 33 -3
37 8 7 18 40 20 47 2z m-1372 -17 c10 -6 19 -18 19 -28 0 -13 6 -10 23 11 17
22 29 28 52 25 19 -2 31 -10 33 -21 3 -14 -2 -17 -25 -15 -23 2 -29 -1 -31
-20 -3 -22 -1 -23 28 -17 27 6 31 4 28 -12 -5 -29 -62 -30 -82 -1 l-16 22 -16
-22 c-29 -42 -104 -20 -104 30 0 46 48 71 91 48z m289 -9 c13 -25 9 -69 -7
-82 -21 -18 -66 -6 -82 22 -13 24 -13 29 2 53 22 32 71 36 87 7z m248 -38 c2
-43 0 -53 -12 -53 -12 0 -16 11 -16 41 0 52 -24 48 -28 -4 -2 -24 -8 -37 -18
-37 -10 0 -14 14 -14 54 l0 55 43 -2 42 -2 3 -52z m187 37 c14 -16 16 -26 9
-52 -8 -28 -15 -34 -44 -36 -24 -3 -38 2 -47 14 -44 60 33 129 82 74z m105 10
c0 -5 -9 -19 -20 -30 -11 -11 -20 -31 -20 -45 0 -16 -6 -25 -15 -25 -12 0 -15
13 -15 55 l0 55 35 0 c19 0 35 -4 35 -10z m158 -47 c2 -43 0 -53 -12 -53 -12
0 -16 11 -16 41 0 24 -4 38 -10 34 -5 -3 -10 -22 -10 -41 0 -27 -4 -34 -20
-34 -17 0 -20 7 -20 40 0 22 -4 40 -10 40 -5 0 -10 -18 -10 -40 0 -29 -4 -40
-15 -40 -12 0 -15 13 -15 55 l0 55 68 -3 67 -2 3 -52z m170 0 c2 -43 0 -53
-12 -53 -12 0 -16 11 -16 41 0 52 -24 48 -28 -4 -2 -24 -8 -37 -18 -37 -10 0
-14 14 -14 54 l0 54 43 -2 42 -1 3 -52z m432 42 c0 -7 -7 -15 -15 -19 -9 -3
-15 -19 -15 -41 0 -28 -4 -35 -20 -35 -17 0 -20 7 -20 48 0 27 2 51 5 54 12
11 65 6 65 -7z m163 -3 c19 -21 19 -68 0 -83 -6 -6 -27 -9 -45 -7 -25 2 -35 9
-42 30 -20 57 48 103 87 60z m389 6 c21 -17 33 -58 17 -58 -7 0 -9 -3 -6 -7
12 -11 -15 -33 -41 -33 -14 0 -34 7 -44 17 -50 45 21 122 74 81z m103 2 c4 -6
1 -17 -5 -25 -9 -11 -9 -15 -1 -15 6 0 11 -11 11 -25 0 -28 -29 -48 -50 -35
-14 9 -24 73 -15 98 5 15 51 16 60 2z m292 -16 c15 -24 15 -29 2 -53 -18 -32
-63 -40 -90 -15 -24 22 -24 49 1 74 28 28 66 26 87 -6z m141 -13 c6 -61 -6
-100 -33 -107 -41 -10 -75 3 -75 29 1 12 -2 36 -6 53 -8 43 15 64 69 61 40 -2
42 -4 45 -36z m162 18 c0 -15 -5 -19 -19 -14 -21 6 -46 -18 -36 -35 4 -7 18
-9 31 -6 20 5 24 3 24 -14 0 -18 -5 -21 -37 -18 -48 4 -66 41 -39 82 22 34 76
37 76 5z m164 2 c13 -15 16 -28 11 -51 -10 -48 -62 -60 -92 -22 -44 55 35 124
81 73z m151 -1 c0 -8 -7 -14 -15 -12 -8 1 -4 -6 10 -17 20 -17 23 -23 14 -38
-13 -22 -52 -29 -68 -13 -8 8 -7 13 3 19 10 7 11 12 0 29 -10 17 -10 23 1 37
16 19 55 16 55 -5z m465 5 c0 -8 -9 -19 -20 -25 -13 -7 -20 -21 -20 -40 0 -20
-5 -30 -15 -30 -11 0 -15 12 -15 48 0 57 1 59 40 60 19 0 30 -4 30 -13z m105
-5 c14 -16 16 -26 9 -52 -8 -28 -15 -34 -44 -36 -24 -3 -38 2 -47 14 -44 60
33 129 82 74z m95 10 c12 -7 12 -12 3 -21 -9 -9 -9 -16 -2 -25 19 -23 1 -54
-31 -54 -32 0 -50 18 -30 30 9 5 9 13 2 26 -21 38 19 69 58 44z"/>
<path d="M2798 1113 c7 -3 16 -2 19 1 4 3 -2 6 -13 5 -11 0 -14 -3 -6 -6z"/>
<path d="M3322 1147 c-15 -17 1 -42 23 -33 18 6 17 37 -1 43 -6 2 -16 -2 -22
-10z"/>
<path d="M4811 1146 c-16 -19 -6 -36 20 -36 15 0 20 6 17 22 -4 27 -21 33 -37
14z"/>
<path d="M1310 1145 c-10 -11 -10 -19 -2 -27 15 -15 44 -2 40 19 -4 23 -22 27
-38 8z"/>
<path d="M1598 1113 c6 -2 18 -2 25 0 6 3 1 5 -13 5 -14 0 -19 -2 -12 -5z"/>
<path d="M2038 1113 c7 -3 16 -2 19 1 4 3 -2 6 -13 5 -11 0 -14 -3 -6 -6z"/>
<path d="M3068 1113 c6 -2 18 -2 25 0 6 3 1 5 -13 5 -14 0 -19 -2 -12 -5z"/>
<path d="M3468 1113 c7 -3 16 -2 19 1 4 3 -2 6 -13 5 -11 0 -14 -3 -6 -6z"/>
<path d="M3833 1144 c-7 -19 11 -39 26 -30 16 10 13 33 -4 40 -9 3 -18 -1 -22
-10z"/>
<path d="M3967 1154 c-15 -15 -7 -45 11 -42 9 2 17 12 17 22 0 20 -16 31 -28
20z"/>
<path d="M3978 1073 c7 -3 16 -2 19 1 4 3 -2 6 -13 5 -11 0 -14 -3 -6 -6z"/>
<path d="M4318 1113 c7 -3 16 -2 19 1 4 3 -2 6 -13 5 -11 0 -14 -3 -6 -6z"/>
<path d="M5038 1113 c6 -2 18 -2 25 0 6 3 1 5 -13 5 -14 0 -19 -2 -12 -5z"/>
</g>
</svg>
